<mxfile host="app.diagrams.net" modified="2021-12-09T18:13:42.958Z" agent="5.0 (Macintosh; Intel Mac OS X 10_15_7) AppleWebKit/537.36 (KHTML, like Gecko) Chrome/96.0.4664.55 Safari/537.36" version="15.7.3" etag="Nn7Q1QR_E8--j9cgI8z7" type="github">
  <diagram id="WFvGQeEgLV2_TZYDWYUT" name="Page-1">
    <mxGraphModel dx="898" dy="391" grid="1" gridSize="10" guides="1" tooltips="1" connect="1" arrows="1" fold="1" page="1" pageScale="1" pageWidth="850" pageHeight="1100" math="0" shadow="0">
      <root>
        <mxCell id="0" />
        <mxCell id="1" parent="0" />
        <mxCell id="HOht50SDp8OuSvQuCi-b-40" value="&amp;lt;--- partecipa a&amp;nbsp;" style="shape=rhombus;perimeter=rhombusPerimeter;whiteSpace=wrap;html=1;align=center;" vertex="1" parent="1">
          <mxGeometry x="310" y="130" width="120" height="60" as="geometry" />
        </mxCell>
      </root>
    </mxGraphModel>
  </diagram>
</mxfile>
